HIERARCHY
ROOT Hips
{
  OFFSET -203.446 92.7729 407.754
  CHANNELS 6 Xposition Yposition Zposition Zrotation Xrotation Yrotation
  JOINT Spine
  {
    OFFSET 0 8 0
    CHANNELS 6 Xposition Yposition Zposition Zrotation Xrotation Yrotation
    JOINT Spine1
    {
      OFFSET 2.172e-05 8 0
      CHANNELS 6 Xposition Yposition Zposition Zrotation Xrotation Yrotation
      JOINT Spine2
      {
        OFFSET 0 8 0
        CHANNELS 6 Xposition Yposition Zposition Zrotation Xrotation Yrotation
        JOINT Spine3
        {
          OFFSET 0 8 0
          CHANNELS 6 Xposition Yposition Zposition Zrotation Xrotation Yrotation
          JOINT Neck
          {
            OFFSET 0.000730106 17 -0.00031562
            CHANNELS 6 Xposition Yposition Zposition Zrotation Xrotation Yrotation
            JOINT Head
            {
              OFFSET 1.0897e-05 10.8 0
              CHANNELS 6 Xposition Yposition Zposition Zrotation Xrotation Yrotation
              End Site
              {
                OFFSET 0 20.25 0
              }
            }
          }
          JOINT LeftShoulder
          {
            OFFSET 5.00075 16.9998 -0.000192235
            CHANNELS 6 Xposition Yposition Zposition Zrotation Xrotation Yrotation
            JOINT LeftShoulder2
            {
              OFFSET 6.45 0 0
              CHANNELS 6 Xposition Yposition Zposition Zrotation Xrotation Yrotation
              JOINT LeftArm
              {
                OFFSET 6.45 0.000365215 0.0020447
                CHANNELS 6 Xposition Yposition Zposition Zrotation Xrotation Yrotation
                JOINT LeftForeArm
                {
                  OFFSET -1.82198e-05 -32.4 -2
                  CHANNELS 6 Xposition Yposition Zposition Zrotation Xrotation Yrotation
                  JOINT LeftHand
                  {
                    OFFSET 0 -25.65 2
                    CHANNELS 6 Xposition Yposition Zposition Zrotation Xrotation Yrotation
                    JOINT LeftHandThumb1
                    {
                      OFFSET -0.500009 -1.49999 2.65001
                      CHANNELS 6 Xposition Yposition Zposition Zrotation Xrotation Yrotation
                      JOINT LeftHandThumb2
                      {
                        OFFSET 0 -3.8 3.7
                        CHANNELS 6 Xposition Yposition Zposition Zrotation Xrotation Yrotation
                        JOINT LeftHandThumb3
                        {
                          OFFSET 0 -3.00003 2.69999
                          CHANNELS 6 Xposition Yposition Zposition Zrotation Xrotation Yrotation
                          End Site
                          {
                            OFFSET 0 -2.3 1.80002
                          }
                        }
                      }
                    }
                    JOINT LeftHandIndex
                    {
                      OFFSET 0 -1.90001 1.60001
                      CHANNELS 6 Xposition Yposition Zposition Zrotation Xrotation Yrotation
                      JOINT LeftHandIndex1
                      {
                        OFFSET 0 -8.30001 1.9
                        CHANNELS 6 Xposition Yposition Zposition Zrotation Xrotation Yrotation
                        JOINT LeftHandIndex2
                        {
                          OFFSET 0 -4.5 0
                          CHANNELS 6 Xposition Yposition Zposition Zrotation Xrotation Yrotation
                          JOINT LeftHandIndex3
                          {
                            OFFSET -1.48831e-05 -3.39995 0
                            CHANNELS 6 Xposition Yposition Zposition Zrotation Xrotation Yrotation
                            End Site
                            {
                              OFFSET 0 -2.59997 -1.46003e-05
                            }
                          }
                        }
                      }
                    }
                    JOINT LeftHandMiddle
                    {
                      OFFSET -0.250013 -2.19999 0.400008
                      CHANNELS 6 Xposition Yposition Zposition Zrotation Xrotation Yrotation
                      JOINT LeftHandMiddle1
                      {
                        OFFSET 1.27862e-05 -8.3 0.999996
                        CHANNELS 6 Xposition Yposition Zposition Zrotation Xrotation Yrotation
                        JOINT LeftHandMiddle2
                        {
                          OFFSET 1.31059e-05 -4.65 0
                          CHANNELS 6 Xposition Yposition Zposition Zrotation Xrotation Yrotation
                          JOINT LeftHandMiddle3
                          {
                            OFFSET 0 -3.3 0
                            CHANNELS 6 Xposition Yposition Zposition Zrotation Xrotation Yrotation
                            End Site
                            {
                              OFFSET -2.00465e-05 -2.70001 0
                            }
                          }
                        }
                      }
                    }
                    JOINT LeftHandRing
                    {
                      OFFSET -0.500007 -2.15 -0.799983
                      CHANNELS 6 Xposition Yposition Zposition Zrotation Xrotation Yrotation
                      JOINT LeftHandRing1
                      {
                        OFFSET 0 -7.74999 -0.200001
                        CHANNELS 6 Xposition Yposition Zposition Zrotation Xrotation Yrotation
                        JOINT LeftHandRing2
                        {
                          OFFSET 1.89754e-05 -3.80001 0
                          CHANNELS 6 Xposition Yposition Zposition Zrotation Xrotation Yrotation
                          JOINT LeftHandRing3
                          {
                            OFFSET -2.1312e-05 -3.40001 1.10787e-05
                            CHANNELS 6 Xposition Yposition Zposition Zrotation Xrotation Yrotation
                            End Site
                            {
                              OFFSET 0 -2.59999 0
                            }
                          }
                        }
                      }
                    }
                    JOINT LeftHandPinky
                    {
                      OFFSET -0.750006 -1.75 -1.84999
                      CHANNELS 6 Xposition Yposition Zposition Zrotation Xrotation Yrotation
                      JOINT LeftHandPinky1
                      {
                        OFFSET 1.03919e-05 -7.15 -1.00001
                        CHANNELS 6 Xposition Yposition Zposition Zrotation Xrotation Yrotation
                        JOINT LeftHandPinky2
                        {
                          OFFSET 0 -3.00001 1.56753e-05
                          CHANNELS 6 Xposition Yposition Zposition Zrotation Xrotation Yrotation
                          JOINT LeftHandPinky3
                          {
                            OFFSET 0 -2.34999 -1.33232e-05
                            CHANNELS 6 Xposition Yposition Zposition Zrotation Xrotation Yrotation
                            End Site
                            {
                              OFFSET 1.20371e-05 -2.10001 0
                            }
                          }
                        }
                      }
                    }
                  }
                }
              }
            }
          }
          JOINT RightShoulder
          {
            OFFSET -4.99925 17.0002 -0.00043895
            CHANNELS 6 Xposition Yposition Zposition Zrotation Xrotation Yrotation
            JOINT RightShoulder2
            {
              OFFSET -6.45 0 0
              CHANNELS 6 Xposition Yposition Zposition Zrotation Xrotation Yrotation
              JOINT RightArm
              {
                OFFSET -6.45002 6.56753e-05 0.00075552
                CHANNELS 6 Xposition Yposition Zposition Zrotation Xrotation Yrotation
                JOINT RightForeArm
                {
                  OFFSET 0 -32.4 -2.00001
                  CHANNELS 6 Xposition Yposition Zposition Zrotation Xrotation Yrotation
                  JOINT RightHand
                  {
                    OFFSET -1.12067e-05 -25.65 2.00001
                    CHANNELS 6 Xposition Yposition Zposition Zrotation Xrotation Yrotation
                    JOINT RightHandThumb1
                    {
                      OFFSET 0.500013 -1.49999 2.64999
                      CHANNELS 6 Xposition Yposition Zposition Zrotation Xrotation Yrotation
                      JOINT RightHandThumb2
                      {
                        OFFSET 0 -3.8 3.70004
                        CHANNELS 6 Xposition Yposition Zposition Zrotation Xrotation Yrotation
                        JOINT RightHandThumb3
                        {
                          OFFSET 0 -3 2.7
                          CHANNELS 6 Xposition Yposition Zposition Zrotation Xrotation Yrotation
                          End Site
                          {
                            OFFSET 1.23512e-05 -2.30001 1.8
                          }
                        }
                      }
                    }
                    JOINT RightHandIndex
                    {
                      OFFSET 1.81851e-05 -1.89999 1.59999
                      CHANNELS 6 Xposition Yposition Zposition Zrotation Xrotation Yrotation
                      JOINT RightHandIndex1
                      {
                        OFFSET -1.12154e-05 -8.29999 1.89999
                        CHANNELS 6 Xposition Yposition Zposition Zrotation Xrotation Yrotation
                        JOINT RightHandIndex2
                        {
                          OFFSET 1.11691e-05 -4.5 1.45102e-05
                          CHANNELS 6 Xposition Yposition Zposition Zrotation Xrotation Yrotation
                          JOINT RightHandIndex3
                          {
                            OFFSET 0 -3.4 0
                            CHANNELS 6 Xposition Yposition Zposition Zrotation Xrotation Yrotation
                            End Site
                            {
                              OFFSET -1.50368e-05 -2.6 0
                            }
                          }
                        }
                      }
                    }
                    JOINT RightHandMiddle
                    {
                      OFFSET 0.250012 -2.19999 0.400002
                      CHANNELS 6 Xposition Yposition Zposition Zrotation Xrotation Yrotation
                      JOINT RightHandMiddle1
                      {
                        OFFSET 0 -8.30001 0.999994
                        CHANNELS 6 Xposition Yposition Zposition Zrotation Xrotation Yrotation
                        JOINT RightHandMiddle2
                        {
                          OFFSET 0 -4.64998 0
                          CHANNELS 6 Xposition Yposition Zposition Zrotation Xrotation Yrotation
                          JOINT RightHandMiddle3
                          {
                            OFFSET -1.75439e-05 -3.30001 0
                            CHANNELS 6 Xposition Yposition Zposition Zrotation Xrotation Yrotation
                            End Site
                            {
                              OFFSET 0 -2.69999 0
                            }
                          }
                        }
                      }
                    }
                    JOINT RightHandRing
                    {
                      OFFSET 0.500005 -2.14999 -0.800011
                      CHANNELS 6 Xposition Yposition Zposition Zrotation Xrotation Yrotation
                      JOINT RightHandRing1
                      {
                        OFFSET 0 -7.75 -0.199992
                        CHANNELS 6 Xposition Yposition Zposition Zrotation Xrotation Yrotation
                        JOINT RightHandRing2
                        {
                          OFFSET 0 -3.8 -1.1575e-05
                          CHANNELS 6 Xposition Yposition Zposition Zrotation Xrotation Yrotation
                          JOINT RightHandRing3
                          {
                            OFFSET 1.86008e-05 -3.40001 0
                            CHANNELS 6 Xposition Yposition Zposition Zrotation Xrotation Yrotation
                            End Site
                            {
                              OFFSET 0 -2.59999 0
                            }
                          }
                        }
                      }
                    }
                    JOINT RightHandPinky
                    {
                      OFFSET 0.750008 -1.74999 -1.85001
                      CHANNELS 6 Xposition Yposition Zposition Zrotation Xrotation Yrotation
                      JOINT RightHandPinky1
                      {
                        OFFSET 0 -7.15 -1
                        CHANNELS 6 Xposition Yposition Zposition Zrotation Xrotation Yrotation
                        JOINT RightHandPinky2
                        {
                          OFFSET -1.09019e-05 -3.00001 1.15524e-05
                          CHANNELS 6 Xposition Yposition Zposition Zrotation Xrotation Yrotation
                          JOINT RightHandPinky3
                          {
                            OFFSET 1.11856e-05 -2.34999 0
                            CHANNELS 6 Xposition Yposition Zposition Zrotation Xrotation Yrotation
                            End Site
                            {
                              OFFSET -1.79692e-05 -2.1 0
                            }
                          }
                        }
                      }
                    }
                  }
                }
              }
            }
          }
        }
      }
    }
  }
  JOINT LeftUpLeg
  {
    OFFSET 7.99999 0 0
    CHANNELS 6 Xposition Yposition Zposition Zrotation Xrotation Yrotation
    JOINT LeftLeg
    {
      OFFSET 1.914e-05 -45 -0.999954
      CHANNELS 6 Xposition Yposition Zposition Zrotation Xrotation Yrotation
      JOINT LeftFoot
      {
        OFFSET 0 -41 -1.99999
        CHANNELS 6 Xposition Yposition Zposition Zrotation Xrotation Yrotation
        JOINT LeftToeBase
        {
          OFFSET 0 -7.5 12.5
          CHANNELS 6 Xposition Yposition Zposition Zrotation Xrotation Yrotation
          JOINT LeftFootToe
          {
            OFFSET 0 0 4
            CHANNELS 6 Xposition Yposition Zposition Zrotation Xrotation Yrotation
            End Site
            {
              OFFSET 0 0 0
            }
          }
        }
      }
    }
  }
  JOINT RightUpLeg
  {
    OFFSET -7.99999 0 0
    CHANNELS 6 Xposition Yposition Zposition Zrotation Xrotation Yrotation
    JOINT RightLeg
    {
      OFFSET -1.40974e-05 -45 -0.999999
      CHANNELS 6 Xposition Yposition Zposition Zrotation Xrotation Yrotation
      JOINT RightFoot
      {
        OFFSET 1.6484e-05 -41.0001 -2.00001
        CHANNELS 6 Xposition Yposition Zposition Zrotation Xrotation Yrotation
        JOINT RightToeBase
        {
          OFFSET 1.28783e-05 -7.5 12.5
          CHANNELS 6 Xposition Yposition Zposition Zrotation Xrotation Yrotation
          JOINT RightFootToe
          {
            OFFSET 0 0 4
            CHANNELS 6 Xposition Yposition Zposition Zrotation Xrotation Yrotation
            End Site
            {
              OFFSET 0 0 0
            }
          }
        }
      }
    }
  }
}
MOTION
Frames:	3
Frame Time:	0.0111111
-203.422 92.7748 407.76 -0.254204 0.416259 123.004 0 8 0 6.07523 5.05975 7.52015 0 8 0 1.70344 4.19934 20.9844 2.84217e-14 8 -5.68434e-14 -0.678188 -2.20111 -51.1482 -5.68434e-14 8 0 1.04647 2.00971 10.4069 0 17 0 -3.85741 -2.6331 -17.0806 -5.68434e-14 10.8 0 -12.5232 -4.16038 -40.976 5 17 0 -16.1914 -2.66899 25.2715 6.45 -1.42109e-14 -5.68434e-14 1.14888 -0.579087 -1.48063 6.45 1.42109e-14 0 22.2242 4.58445 -14.5382 5.68434e-14 -32.4 -2 -55.6495 -44.7507 -58.3952 0 -25.65 2 18.8064 -15.423 -29.2938 -0.5 -1.5 2.65 -2.60295 -16.6198 1.41284 0 -3.8 3.7 -0.0216813 23.2693 0.00165594 0 -3 2.7 -0.0430862 7.71436 -0.0155034 5.68434e-14 -1.9 1.6 1.82749e-06 1.52667e-06 -5.04203e-07 -5.68434e-14 -8.3 1.9 -0.0789764 -2.28417 0.0151999 0 -4.5 2.84217e-14 -35.3992 -0.0451818 0.0716331 5.68434e-14 -3.4 0 -25.3118 -0.0421105 0.0290307 -0.25 -2.2 0.4 1.82749e-06 1.52667e-06 -5.04203e-07 -5.68434e-14 -8.3 1 -12.758 13.1057 1.92458 0 -4.65 0 -38.0029 0.0297155 -0.0218192 0 -3.3 2.84217e-14 -26.8819 0.0221451 -0.00513911 -0.5 -2.15 -0.8 1.82749e-06 1.52667e-06 -5.04203e-07 0 -7.75 -0.2 -48.1771 22.3008 13.1106 0 -3.8 2.84217e-14 -9.21967 0.0118743 -0.00511106 0 -3.4 0 -8.18207 0.00957177 0.0144985 -0.75 -1.75 -1.85 1.82749e-06 1.52667e-06 -5.04203e-07 5.68434e-14 -7.15 -1 -80.0914 8.17929 16.4044 0 -3 -1.42109e-14 -7.24877 0.00104746 0.0041233 0 -2.35 2.84217e-14 -6.58699 0.00404676 0.0043463 -5 17 0 -11.8588 2.95618 16.3879 -6.45 1.42109e-14 0 -1.74591 1.2707 4.73404 -6.45 2.84217e-14 0 -27.8085 1.88019 -28.2904 0 -32.4 -2 50.8887 -28.7175 84.8929 0 -25.65 2 7.45158 -6.18189 -5.02357 0.5 -1.5 2.65 -7.61172 -15.4519 -11.1702 7.10543e-14 -3.8 3.7 0.226398 9.38748 -0.10557 0 -3 2.7 0.00643526 18.6714 -0.0260411 2.84217e-14 -1.9 1.6 2.08724e-15 -3.18055e-15 3.97569e-16 -5.68434e-14 -8.3 1.9 0.265051 4.3912 0.0102344 5.68434e-14 -4.5 -5.68434e-14 12.6122 -0.0193101 0.0209368 -2.84217e-14 -3.4 -5.68434e-14 10.7515 -0.00840905 0.0251218 0.25 -2.2 0.4 2.08724e-15 -3.18055e-15 3.97569e-16 0 -8.3 1 0.248028 4.21399 0.0511074 5.68434e-14 -4.65 0 42.1308 0.00783681 -0.00202569 -5.68434e-14 -3.3 5.68434e-14 29.3983 -0.0101678 -0.0441638 0.5 -2.15 -0.8 2.08724e-15 -3.18055e-15 3.97569e-16 -8.52651e-14 -7.75 -0.2 0.25813 4.33125 -0.0305757 0 -3.8 5.68434e-14 21.1032 -0.0157223 0.0142048 0 -3.4 -5.68434e-14 16.602 -0.00437665 -0.0123613 0.75 -1.75 -1.85 2.08724e-15 -3.18055e-15 3.97569e-16 0 -7.15 -1 0.23542 4.21459 -0.0473309 2.84217e-14 -3 0 -2.41229e-05 0.0241802 0.0398496 0 -2.35 0 -4.75146e-05 0.0237892 0.0403421 8 2.84217e-14 0 -0.729246 -6.82857 -15.8994 5.68434e-14 -45 -1 -0.200849 15.6012 2.23756 -5.68434e-14 -41 -2 -1.39853 -7.39071 -15.0273 -5.68434e-14 -7.5 12.5 -9.73518e-08 -1.07556 -0.000493044 5.68434e-14 0 4 -4.87319 4.35604 45.3803 -8 0 0 -10.7311 -15.394 -2.52255 5.68434e-14 -45 -1 0.19336 8.2882 -1.45056 0 -41 -2 4.2012 -0.0299068 1.15975 0 -7.5 12.5 2.02134e-06 0.016921 7.93816e-06 0 0 4 -2.58164 -0.425645 22.187 
-203.908 92.7722 407.534 -0.285435 0.498105 121.517 -5.68434e-14 8 0 6.07833 5.36972 7.72832 2.84217e-14 8 0 1.69804 4.3539 21.031 0 8 -5.68434e-14 -0.671424 -2.12362 -51.122 0 8 0 1.04503 2.08102 10.4262 0 17 0 -4.14852 -2.70246 -16.8182 5.68434e-14 10.8 0 -12.4846 -4.24495 -40.3263 5 17 0 -16.5641 -2.68402 25.1304 6.45 0 0 1.19488 -0.586395 -1.48557 6.45 2.84217e-14 5.68434e-14 20.9437 3.64333 -14.6509 0 -32.4 -2 -54.3291 -44.4908 -57.0999 -5.68434e-14 -25.65 2 18.9075 -15.0581 -29.1856 -0.5 -1.5 2.65 -1.7199 -16.7329 2.25136 -5.68434e-14 -3.8 3.7 -0.0230637 22.8433 0.00524611 5.68434e-14 -3 2.7 -0.0445146 9.17614 -0.0294408 5.68434e-14 -1.9 1.6 1.82749e-06 1.52667e-06 -5.04203e-07 0 -8.3 1.9 -0.112047 -2.66728 0.0206312 0 -4.5 2.84217e-14 -33.8041 -0.0736702 0.116576 0 -3.4 0 -24.3415 -0.068438 0.0482177 -0.25 -2.2 0.4 1.82749e-06 1.52667e-06 -5.04203e-07 0 -8.3 1 -12.0896 12.5987 1.81197 5.68434e-14 -4.65 0 -38.3321 0.0466756 -0.0352634 5.68434e-14 -3.3 -2.84217e-14 -27.0821 0.0350486 -0.00513911 -0.5 -2.15 -0.8 1.82749e-06 1.52667e-06 -5.04203e-07 0 -7.75 -0.2 -48.1393 22.1833 13.0718 -1.13687e-13 -3.8 0 -9.38783 0.0216542 -0.00511106 5.68434e-14 -3.4 0 -8.31106 0.0174887 0.0144985 -0.75 -1.75 -1.85 1.82749e-06 1.52667e-06 -5.04203e-07 5.68434e-14 -7.15 -1 -80.0947 8.18418 16.4129 -5.68434e-14 -3 0 -7.15231 0.00523047 0.00359837 0 -2.35 -2.84217e-14 -6.50881 0.00404676 0.00367381 -5 17 -5.68434e-14 -12.4517 3.00346 16.1132 -6.45 0 0 -1.78482 1.25448 4.64864 -6.45 0 5.68434e-14 -27.203 1.03456 -27.3459 0 -32.4 -2 50.5937 -28.5022 84.9043 0 -25.65 2 7.49997 -5.8172 -4.28774 0.5 -1.5 2.65 -7.57482 -15.4284 -11.1421 7.10543e-14 -3.8 3.7 0.225859 9.09888 -0.105483 -4.26326e-14 -3 2.7 0.00634548 18.4841 -0.0260125 2.84217e-14 -1.9 1.6 1.19271e-15 0 1.98785e-16 -8.52651e-14 -8.3 1.9 0.268853 4.42397 0.0102348 -2.84217e-14 -4.5 0 11.8241 -0.02377 0.0209368 -5.68434e-14 -3.4 0 10.17 -0.00840905 0.0251218 0.25 -2.2 0.4 1.19271e-15 0 1.98785e-16 0 -8.3 1 0.247955 4.29553 0.0511128 2.84217e-14 -4.65 0 41.689 0.00783681 -0.00202569 -1.13687e-13 -3.3 0 29.1243 -0.0101678 -0.0441638 0.5 -2.15 -0.8 1.19271e-15 0 1.98785e-16 -2.84217e-14 -7.75 -0.2 0.252259 4.29034 -0.030574 0 -3.8 0 20.7918 -0.0140676 0.0126708 -2.84217e-14 -3.4 -5.68434e-14 16.402 -0.00437665 -0.0123613 0.75 -1.75 -1.85 1.19271e-15 0 1.98785e-16 -2.84217e-14 -7.15 -1 0.235401 4.19195 -0.0473295 0 -3 0 -2.41229e-05 0.0241802 0.0398496 2.84217e-14 -2.35 0 -4.75146e-05 0.0237892 0.0403421 8 2.84217e-14 5.68434e-14 -0.899297 -6.46062 -14.8325 -5.68434e-14 -45 -1 -0.181226 14.7163 2.15747 5.68434e-14 -41 -2 -1.23557 -7.33305 -14.6422 0 -7.5 12.5 5.26816e-06 -0.452047 -0.000492973 0 0 4 -4.93386 3.7338 45.3339 -8 -1.42109e-14 -5.68434e-14 -10.4875 -15.7761 -3.31901 0 -45 -1 0.224494 9.28122 -1.4748 0 -41 -2 4.08923 0.0285708 -1.01819 0 -7.5 12.5 2.02134e-06 0.016921 7.93816e-06 0 0 4 -2.50883 -0.604235 22.2027 
-204.379 92.7719 407.29 -0.352077 0.658409 120.059 0 8 0 5.96879 5.66561 7.90997 -2.84217e-14 8 0 1.66898 4.46959 21.0529 -5.68434e-14 8 0 -0.679525 -2.06413 -51.1093 0 8 5.68434e-14 1.03015 2.13751 10.4411 0 17 0 -4.35149 -2.75578 -16.5366 0 10.8 -2.84217e-14 -12.4047 -4.32465 -39.6301 5 17 -5.68434e-14 -16.8344 -2.70316 25.0275 6.45 -1.42109e-14 0 1.24217 -0.593826 -1.48367 6.45 1.42109e-14 5.68434e-14 19.7502 2.63705 -14.7979 0 -32.4 -2 -53.0395 -44.2431 -55.8153 0 -25.65 2 18.8682 -14.7173 -29.1557 -0.5 -1.5 2.65 -1.05972 -16.7696 2.95926 5.68434e-14 -3.8 3.7 -0.0295756 22.0323 0.0227567 0 -3 2.7 -0.034817 10.88 -0.0486548 0 -1.9 1.6 1.82749e-06 1.52667e-06 -5.04203e-07 0 -8.3 1.9 -0.188541 -3.26622 0.0278342 0 -4.5 0 -31.5244 -0.108216 0.174638 0 -3.4 -2.84217e-14 -22.922 -0.101055 0.0766011 -0.25 -2.2 0.4 1.82749e-06 1.52667e-06 -5.04203e-07 -5.68434e-14 -8.3 1 -11.2973 11.9017 1.6884 0 -4.65 1.42109e-14 -38.602 0.0479052 -0.0378575 0 -3.3 -1.42109e-14 -27.2453 0.0364152 -0.00502013 -0.5 -2.15 -0.8 1.82749e-06 1.52667e-06 -5.04203e-07 0 -7.75 -0.2 -48.136 22.0501 13.0628 0 -3.8 1.42109e-14 -9.71609 0.0292759 -0.00512067 1.13687e-13 -3.4 1.42109e-14 -8.56429 0.0234134 0.0144985 -0.75 -1.75 -1.85 1.82749e-06 1.52667e-06 -5.04203e-07 5.68434e-14 -7.15 -1 -80.0643 8.2714 16.4761 0 -3 1.42109e-14 -7.00904 0.00354228 -0.000644201 0 -2.35 -2.84217e-14 -6.3878 0.00404676 -0.000354848 -5 17 0 -12.9285 3.05416 15.9076 -6.45 -1.42109e-14 0 -1.82318 1.23611 4.58863 -6.45 -2.84217e-14 0 -26.6042 0.188947 -26.3972 0 -32.4 -2 50.3087 -28.272 84.8647 0 -25.65 2 7.50936 -5.4854 -3.42831 0.5 -1.5 2.65 -7.55809 -15.3964 -11.1265 4.26326e-14 -3.8 3.7 0.225395 8.84993 -0.105411 -2.84217e-14 -3 2.7 0.0062646 18.315 -0.0259869 5.68434e-14 -1.9 1.6 1.59028e-15 3.18055e-15 -7.95139e-16 -2.84217e-14 -8.3 1.9 0.271779 4.45233 0.0102352 5.68434e-14 -4.5 0 11.0941 -0.0251792 0.0209368 -5.68434e-14 -3.4 0 9.6225 -0.00840905 0.0251218 0.25 -2.2 0.4 1.59028e-15 3.18055e-15 -7.95139e-16 0 -8.3 1 0.247914 4.34158 0.0511159 2.84217e-14 -4.65 0 41.2623 0.00783681 -0.00261093 0 -3.3 5.68434e-14 28.8609 -0.0101678 -0.0441638 0.5 -2.15 -0.8 1.59028e-15 3.18055e-15 -7.95139e-16 0 -7.75 -0.2 0.248249 4.26077 -0.0300782 0 -3.8 0 20.4752 -0.012375 0.0111188 0 -3.4 0 16.197 -0.00437665 -0.0123613 0.75 -1.75 -1.85 1.59028e-15 3.18055e-15 -7.95139e-16 0 -7.15 -1 0.235379 4.16442 -0.0473278 2.84217e-14 -3 0 -2.41229e-05 0.0241802 0.0398496 -2.84217e-14 -2.35 0 -4.75146e-05 0.0237892 0.0403421 8 1.42109e-14 0 -1.17685 -6.10774 -13.9366 5.68434e-14 -45 -1 -0.161804 13.8372 2.08582 0 -41 -2 -1.03163 -7.14235 -14.1742 -5.68434e-14 -7.5 12.5 8.34024e-06 -0.0949931 -0.000492958 0 0 4 -4.99652 3.2421 45.3093 -8 1.42109e-14 0 -10.345 -16.1031 -4.18324 0 -45 -1 0.24742 10.3666 -1.46616 -5.68434e-14 -41 -2 4.04964 0.0643238 -2.70503 -5.68434e-14 -7.5 12.5 2.02142e-06 0.0163632 7.93816e-06 -5.68434e-14 3.55271e-15 4 -2.44632 -0.767439 22.2041 
